/vscmnt/brussel_pixiu_data/_data_brussel/112/vsc11236/PredSimResults/SUBJ10_Falisse2022/weightedWalking/worker_04.mot
version=1
nRows=4
nColumns=124
inDegrees=yes
endheader
                time	         pelvis_tilt	         pelvis_list	     pelvis_rotation	           pelvis_tx	           pelvis_ty	           pelvis_tz	       hip_flexion_r	     hip_adduction_r	      hip_rotation_r	        knee_angle_r	       ankle_angle_r	    subtalar_angle_r	         mtp_angle_r	       hip_flexion_l	     hip_adduction_l	      hip_rotation_l	        knee_angle_l	       ankle_angle_l	    subtalar_angle_l	         mtp_angle_l	    lumbar_extension	      lumbar_bending	     lumbar_rotation	          arm_flex_r	           arm_add_r	           arm_rot_r	        elbow_flex_r	          arm_flex_l	           arm_add_l	           arm_rot_l	        elbow_flex_l	glut_med1_r/activation	glut_med2_r/activation	glut_med3_r/activation	glut_min1_r/activation	glut_min2_r/activation	glut_min3_r/activation	semimem_r/activation	semiten_r/activation	bifemlh_r/activation	bifemsh_r/activation	    sar_r/activation	add_long_r/activation	add_brev_r/activation	add_mag1_r/activation	add_mag2_r/activation	add_mag3_r/activation	    tfl_r/activation	   pect_r/activation	   grac_r/activation	glut_max1_r/activation	glut_max2_r/activation	glut_max3_r/activation	iliacus_r/activation	  psoas_r/activation	quad_fem_r/activation	    gem_r/activation	   peri_r/activation	rect_fem_r/activation	vas_med_r/activation	vas_int_r/activation	vas_lat_r/activation	med_gas_r/activation	lat_gas_r/activation	 soleus_r/activation	tib_post_r/activation	flex_dig_r/activation	flex_hal_r/activation	tib_ant_r/activation	per_brev_r/activation	per_long_r/activation	per_tert_r/activation	ext_dig_r/activation	ext_hal_r/activation	glut_med1_l/activation	glut_med2_l/activation	glut_med3_l/activation	glut_min1_l/activation	glut_min2_l/activation	glut_min3_l/activation	semimem_l/activation	semiten_l/activation	bifemlh_l/activation	bifemsh_l/activation	    sar_l/activation	add_long_l/activation	add_brev_l/activation	add_mag1_l/activation	add_mag2_l/activation	add_mag3_l/activation	    tfl_l/activation	   pect_l/activation	   grac_l/activation	glut_max1_l/activation	glut_max2_l/activation	glut_max3_l/activation	iliacus_l/activation	  psoas_l/activation	quad_fem_l/activation	    gem_l/activation	   peri_l/activation	rect_fem_l/activation	vas_med_l/activation	vas_int_l/activation	vas_lat_l/activation	med_gas_l/activation	lat_gas_l/activation	 soleus_l/activation	tib_post_l/activation	flex_dig_l/activation	flex_hal_l/activation	tib_ant_l/activation	per_brev_l/activation	per_long_l/activation	per_tert_l/activation	ext_dig_l/activation	ext_hal_l/activation	 ercspn_r/activation	 ercspn_l/activation	 intobl_r/activation	 intobl_l/activation	 extobl_r/activation	 extobl_l/activation	
          1.24817764	         -5.94479751	         -1.26743424	          2.58341260	          1.28562297	          0.82313024	         -0.00448935	         33.54252886	          3.68562398	          3.28973153	        -11.34049375	         12.14005841	         -8.05982728	          0.23920024	        -14.65167883	          2.20795562	         10.89316289	         -6.07064013	          5.13544910	         -4.31712430	         29.01038868	         -3.30485056	         -0.35268468	         -1.95501879	        -12.36321186	        -13.72775035	         12.37141268	         11.87385829	         18.30413114	        -13.70817718	         19.07465255	         70.37908282	          0.01667445	          0.01000001	          0.01000001	          0.01208023	          0.01000007	          0.01000005	          0.09574832	          0.03566536	          0.02900967	          0.01000001	          0.01459338	          0.06161531	          0.15333070	          0.15998765	          0.10633556	          0.06123301	          0.01208035	          0.02129673	          0.07517868	          0.01000015	          0.01000002	          0.04609693	          0.02066395	          0.02129656	          0.12859160	          0.01118171	          0.01000047	          0.01762923	          0.09550993	          0.09303138	          0.08313232	          0.00999999	          0.01000000	          0.00999999	          0.01714605	          0.01459336	          0.01459336	          0.30179339	          0.23875922	          0.17480480	          0.10463440	          0.38950228	          0.16063334	          0.14750365	          0.10080281	          0.07525695	          0.17436526	          0.15960679	          0.12958209	          0.01000044	          0.01000003	          0.01000002	          0.02724319	          0.07063621	          0.07581387	          0.01000010	          0.01000048	          0.01000072	          0.01000008	          0.20338070	          0.01000150	          0.02160288	          0.02383694	          0.01763353	          0.01208571	          0.25121296	          0.33300299	          0.02572690	          0.02572688	          0.10044170	          0.06454806	          0.01000013	          0.01000016	          0.01000019	          0.21537518	          0.28590883	          0.30059166	          0.27139688	          0.32153880	          0.31669134	          0.01000001	          0.01000000	          0.00999999	          0.01000001	          0.01000000	          0.01000006	          0.03447940	          0.01000007	          0.03917914	          0.01459335	          0.06231307	          0.00999999	
          1.26065942	         -5.93161938	         -1.49570833	          2.87631717	          1.30165675	          0.82172249	         -0.00423577	         32.83505975	          4.04395567	          3.59623727	        -11.92226006	         11.37319500	         -8.50132582	          0.22705983	        -14.55157458	          1.99807373	         10.42979331	         -8.29360545	          5.02986665	         -3.73831740	         30.29623533	         -3.16992366	          0.14617122	         -2.01532730	        -13.84422435	        -13.75352037	         12.03423594	         11.52172673	         18.08394058	        -13.72705516	         19.10485963	         73.26324243	          0.02944916	          0.01000003	          0.01000003	          0.01000009	          0.01000007	          0.13700470	          0.07925992	          0.04105738	          0.04131670	          0.03696567	          0.01208039	          0.05100481	          0.12692628	          0.13243687	          0.08802399	          0.05068837	          0.01000012	          0.01762941	          0.06223268	          0.08492935	          0.01951448	          0.03815899	          0.01710550	          0.01762917	          0.10644749	          0.01000645	          0.09013343	          0.01459338	          0.07906257	          0.07701085	          0.06881646	          0.01762920	          0.01762919	          0.01727220	          0.01419340	          0.01208031	          0.01208031	          0.32172374	          0.25117436	          0.14470242	          0.09062397	          0.45285175	          0.13297137	          0.19452381	          0.08344399	          0.06229728	          0.14433874	          0.13212160	          0.10726731	          0.01453171	          0.01208065	          0.01208069	          0.02255176	          0.05847226	          0.10406073	          0.01000067	          0.01000088	          0.01000133	          0.01000051	          0.16835739	          0.03437369	          0.01788277	          0.01973211	          0.01459697	          0.01000457	          0.20795266	          0.27565797	          0.02129659	          0.02129658	          0.08314506	          0.05343252	          0.01000001	          0.01000001	          0.01000000	          0.17828634	          0.23667370	          0.29320296	          0.24336342	          0.27257109	          0.28212455	          0.01000000	          0.01000000	          0.01000000	          0.01000001	          0.01000000	          0.01000004	          0.02854186	          0.02111433	          0.03243227	          0.01208030	          0.05158240	          0.01208026	
          1.27314119	         -5.91582332	         -1.72043096	          3.15241249	          1.31781236	          0.82035645	         -0.00395852	         32.02664446	          4.37923146	          3.91071994	        -12.41795107	         10.65683005	         -8.94366051	          0.22721336	        -14.32521317	          1.78992336	          9.94738743	        -10.73691062	          4.83556315	         -3.15598280	         31.40433924	         -3.03287889	          0.64882314	         -2.06644922	        -15.24148938	        -13.76182464	         11.84194022	         11.12442827	         17.78807641	        -13.73461779	         19.09654451	         75.93976663	          0.14662542	          0.16616404	          0.18371241	          0.08599985	          0.07664995	          0.11341176	          0.06561091	          0.04054486	          0.03420174	          0.03059999	          0.01000014	          0.04222150	          0.10506886	          0.10963052	          0.07286613	          0.05107620	          0.01000006	          0.01459359	          0.05830823	          0.13211771	          0.07828577	          0.05231117	          0.01415984	          0.01459333	          0.08811676	          0.01000035	          0.08855932	          0.01208032	          0.06544756	          0.06374916	          0.05696589	          0.01459335	          0.01459335	          0.01429783	          0.01174922	          0.01000002	          0.01000002	          0.39659885	          0.28223713	          0.15860038	          0.33696320	          0.47859698	          0.23349859	          0.22132194	          0.06907446	          0.05156933	          0.14508376	          0.10936951	          0.08879527	          0.01557438	          0.01000033	          0.01000036	          0.01866822	          0.04840301	          0.10960081	          0.01002343	          0.01000107	          0.01000093	          0.01431543	          0.13936530	          0.02845451	          0.01480328	          0.01633416	          0.01208333	          0.01000023	          0.17214202	          0.22818810	          0.01762919	          0.01762920	          0.06882701	          0.04423114	          0.01350339	          0.01231819	          0.01000097	          0.14758441	          0.19591713	          0.27190756	          0.22949756	          0.25554544	          0.26237255	          0.01000000	          0.01000013	          0.01093949	          0.01000003	          0.01000000	          0.01000003	          0.05216948	          0.03489347	          0.02684725	          0.01000000	          0.04269962	          0.00999999	
          1.28562297	         -5.89872606	         -1.93487246	          3.41194762	          1.33387571	          0.81919424	         -0.00364255	         31.21798500	          4.71348437	          4.22074529	        -12.88714353	          9.88240839	         -9.37612893	          0.22223385	        -13.94999076	          1.58298012	          9.46223340	        -13.39627318	          4.53990842	         -2.55574954	         32.20699618	         -2.90641986	          1.14558194	         -2.10944000	        -16.49976195	        -13.74417566	         11.78382635	         10.65377913	         17.45687691	        -13.72674731	         19.07114345	         78.32066298	          0.20996088	          0.24023661	          0.25252804	          0.07119070	          0.10807460	          0.12697901	          0.05431234	          0.04501481	          0.03256419	          0.02533050	          0.01000005	          0.03495072	          0.08697541	          0.09075155	          0.07504830	          0.06720040	          0.01000004	          0.01208057	          0.04826730	          0.17326251	          0.11478552	          0.07384939	          0.01172144	          0.01208028	          0.07580305	          0.01207484	          0.07330895	          0.01000002	          0.09918843	          0.09806892	          0.09188921	          0.01208029	          0.01208029	          0.01183566	          0.01031811	          0.01000006	          0.01000005	          0.46173168	          0.29322306	          0.15917949	          0.40107526	          0.51491876	          0.26487307	          0.20023991	          0.05717944	          0.04268880	          0.13888340	          0.09053547	          0.07350422	          0.02183964	          0.01000026	          0.01000033	          0.01545345	          0.04006774	          0.12615811	          0.05678275	          0.01000156	          0.01002827	          0.03410961	          0.11536581	          0.02355474	          0.01225409	          0.01352137	          0.01000259	          0.01000033	          0.14249819	          0.18889281	          0.01459335	          0.01459336	          0.05697461	          0.03661429	          0.02133782	          0.01958522	          0.01839423	          0.12216953	          0.16217909	          0.24587496	          0.21772942	          0.24341451	          0.24687757	          0.01000001	          0.01000007	          0.01000003	          0.01000006	          0.01000001	          0.01000009	          0.06492184	          0.05509765	          0.02222400	          0.00999999	          0.03534650	          0.00999999	
